PathFileType	4	(X/Y/Z)	c:\Git\powerlifing_model_clean\simulations\HC835B\Session1\HC835B_OGW_0006\marker_experimental.trc
DataRate	CameraRate	NumFrames	NumMarkers	Units	OrigDataRate	OrigDataStartFrame	OrigNumFrames
240.000000	240.000000	5	38	mm	240.000000	270	433
Frame#	Time	RPSI			LPSI			RASI			LASI			RTH1			RTH2			RTH3			RTH4			RSK1			RSK2			RSK3			RSK4			RCAL1			RCAL2			RCAL3			RST			RPT			RTN			RFMB			RSMB			RVMB			RFMH			RSMH			RVMH			RPM			LTH1			LTH2			LTH3			LTH4			LSK1			LSK2			LSK3			LSK4			LCAL1			LCAL2			LCAL3			LFMH			LVMH			
		X1	Y1	Z1	X2	Y2	Z2	X3	Y3	Z3	X4	Y4	Z4	X5	Y5	Z5	X6	Y6	Z6	X7	Y7	Z7	X8	Y8	Z8	X9	Y9	Z9	X10	Y10	Z10	X11	Y11	Z11	X12	Y12	Z12	X13	Y13	Z13	X14	Y14	Z14	X15	Y15	Z15	X16	Y16	Z16	X17	Y17	Z17	X18	Y18	Z18	X19	Y19	Z19	X20	Y20	Z20	X21	Y21	Z21	X22	Y22	Z22	X23	Y23	Z23	X24	Y24	Z24	X25	Y25	Z25	X26	Y26	Z26	X27	Y27	Z27	X28	Y28	Z28	X29	Y29	Z29	X30	Y30	Z30	X31	Y31	Z31	X32	Y32	Z32	X33	Y33	Z33	X34	Y34	Z34	X35	Y35	Z35	X36	Y36	Z36	X37	Y37	Z37	X38	Y38	Z38	

271	1.125	449.8391418457032	1075.995849609375	-764.3341674804689	559.4610595703126	1082.96826171875	-764.2813110351564	398.1297302246095	1043.808227539063	-550.8583374023439	643.3123779296876	1040.889038085938	-560.0081176757814	320.6230468750001	782.1556396484377	-536.0004882812501	335.0647277832032	795.4141235351565	-478.6567382812501	332.9236145019532	716.5756835937501	-483.4783935546876	357.2073364257813	727.8610229492189	-431.0794067382814	384.0946044921876	275.3840942382813	-390.7625122070314	374.3106384277344	283.6232604980469	-330.3622436523438	386.5538330078126	229.1151885986329	-354.7700805664063	387.8258666992189	238.6654205322266	-295.2522583007813	454.0271606445314	82.31412506103517	-338.6516723632813	484.3756713867189	49.56107711791994	-317.9961547851563	420.9664306640626	47.51220703125001	-330.6856994628907	487.2968750000001	80.4109573364258	-254.8085632324219	387.4033508300782	70.37619781494142	-282.4736633300782	463.0319213867189	116.6308898925782	-212.9275817871094	454.6406555175782	109.9827041625977	-178.9136657714844	405.4211425781251	132.5450134277344	-183.8782958984375	372.3963928222657	56.38944244384767	-233.7474365234376	451.3082885742189	98.98824310302737	-121.8983230590821	395.2699584960939	116.7846603393555	-120.1829299926758	340.3371582031251	66.18505859375001	-162.3266143798828	396.8374938964845	128.4603729248047	-66.60569000244142	700.1265258789064	786.0201416015627	-719.1533203125001	692.7139282226564	758.6701660156251	-665.6326293945314	690.2008056640626	700.8942871093751	-722.4215087890626	670.4676513671876	675.1989135742189	-670.4072875976564	652.7195434570314	321.5074768066407	-990.589294433594	657.0938720703126	281.1687011718751	-955.720153808594	648.9287719726564	266.1874084472657	-1002.724670410156	638.5299682617189	226.5999755859376	-963.6569824218752	591.3518066406251	152.3900604248047	-1127.65869140625	620.2109375000001	115.4712219238282	-1137.925903320313	561.4649047851564	114.907455444336	-1134.498901367188	563.0912475585939	57.87781524658205	-919.5140380859377	664.9601440429689	36.49357986450196	-969.2437744140627	
272	1.129166666666667	449.3568115234376	1075.183837890625	-756.7352905273439	558.8259887695314	1082.037353515625	-756.6673583984376	397.3689880371095	1043.661254882813	-542.8789062500001	642.5302124023439	1039.7734375	-552.2957763671876	320.5761718750001	781.925964355469	-527.8414306640626	334.4152526855469	795.1309204101565	-470.2731018066407	332.8471984863282	716.2301025390626	-475.4208068847657	356.7214965820313	727.5221557617189	-422.8785705566407	384.686981201172	275.2490844726563	-384.2962341308595	374.9594421386719	283.3500671386719	-323.7613525390626	387.1172485351564	228.7581787109376	-348.7653503417969	388.923553466797	237.5501708984376	-289.0396423339844	455.0652160644532	84.49394989013673	-337.8688049316407	484.5179138183595	49.85500717163087	-316.3070373535157	421.1818237304689	48.26112747192384	-328.8352966308594	488.3057556152345	78.56849670410158	-252.2016296386719	387.8881835937501	70.00135803222658	-279.5623779296876	464.1709594726564	114.0899887084961	-209.3644561767579	455.9590454101564	106.8300704956055	-175.4247283935547	406.8326416015626	129.900375366211	-179.6402587890625	373.3797607421876	55.01728439331056	-231.5507202148438	452.5787048339845	94.68446350097658	-119.2964096069336	396.723846435547	112.8066787719727	-116.2468566894532	341.4383239746094	63.47702789306642	-159.818832397461	398.6627502441407	123.3420944213867	-62.74459075927736	699.6631469726564	784.950134277344	-711.2232666015626	692.2216186523439	757.7109375000001	-657.6467895507814	689.8831176757814	699.8240356445314	-714.2664794921876	670.0968627929689	674.1866455078126	-662.2639770507814	652.9688110351564	323.3310546875001	-985.4988403320315	657.5109252929689	282.4966735839844	-951.2047119140627	649.2113647460939	268.1523437500001	-998.3829345703127	639.1904296875001	228.0235595703126	-959.931091308594	591.5281982421876	156.3106994628907	-1124.670776367188	620.3163452148439	119.7464828491211	-1136.300903320313	561.5171508789064	119.2625198364258	-1132.107421875	563.2069702148439	57.84583663940431	-918.6934814453127	664.9981689453126	36.76255798339844	-968.9661865234377	
273	1.133333333333333	448.9044799804689	1074.524047851563	-749.1749877929689	558.3262939453126	1081.201416015625	-749.0568237304689	396.6304321289064	1043.626098632813	-535.1220092773439	641.7276000976564	1038.655151367188	-544.5179443359376	320.4723815917969	781.7202148437502	-519.8649291992189	333.6565551757813	794.787536621094	-462.1669921875001	332.7146606445313	715.9272460937501	-467.5684814453126	356.3101501464844	726.8964233398439	-415.0920715332032	384.9230957031251	275.5226135253907	-377.6236877441407	375.4255981445313	283.0456848144532	-317.0293579101563	387.2794494628907	228.5843505859376	-342.7501525878907	389.570281982422	236.7846221923829	-282.9869384765626	455.0259704589845	85.53348541259767	-335.0961303710938	484.4421691894532	50.27217102050783	-314.8154602050782	421.3039550781251	49.31207656860353	-327.1052246093751	488.5261840820314	77.18836975097658	-249.8256072998047	388.210418701172	69.83131408691408	-276.6877441406251	465.1844177246095	111.6894836425782	-206.1311187744141	457.1526794433595	103.7360534667969	-171.9454345703125	408.2146911621095	127.3917312622071	-175.577133178711	373.9450073242188	53.7352752685547	-229.052963256836	454.2130126953126	90.21162414550783	-116.5224075317383	398.3389282226564	108.4730377197266	-112.4189453125	343.2661437988282	61.02000045776369	-157.1063690185547	400.574432373047	117.5060806274414	-58.89901351928712	699.2698974609376	783.9183349609377	-703.0679321289064	691.8185424804689	756.8381347656251	-649.4454956054689	689.5974121093751	698.7993164062501	-705.9028320312501	669.7616577148439	673.2984008789064	-653.8928833007814	653.1589965820314	325.1786499023438	-980.108825683594	657.9773559570314	283.9432067871094	-946.4659423828127	649.5803222656251	270.2635803222657	-993.8574829101565	639.6166381835939	229.4254760742188	-955.943542480469	591.7811279296876	160.5800323486328	-1121.188232421875	620.3299560546876	123.8882904052735	-1133.177368164063	561.4480590820314	123.8429718017578	-1129.461059570313	563.3048706054689	57.6558074951172	-917.9294433593752	664.9649658203126	37.08055877685548	-968.6782836914065	
274	1.1375	448.4971008300782	1074.04443359375	-741.7060546875001	557.6970214843751	1080.453979492188	-741.4168090820314	395.921600341797	1043.744873046875	-527.2075195312501	640.9056396484376	1037.67626953125	-536.7007446289064	320.3570251464844	781.5291748046877	-512.1240844726564	332.8475036621094	794.4141845703127	-454.241912841797	332.3903808593751	715.8380737304689	-459.8169555664064	355.4543762207032	726.7065429687501	-407.0481567382814	384.8063964843751	276.4370117187501	-371.0511169433594	375.6232910156251	282.9430847167969	-310.3139648437501	386.9059448242189	228.7274475097657	-336.6753234863282	389.9987182617189	236.3579254150391	-276.9152526855469	454.7995910644532	86.40719604492189	-332.5986022949219	484.349334716797	50.88853454589845	-313.5668640136719	421.192596435547	50.04924392700197	-325.7977905273438	488.8123168945314	76.0516815185547	-247.8998107910157	388.4968261718751	69.68731689453126	-274.2960205078126	466.007537841797	109.5285949707032	-203.1166229248047	458.2834472656251	100.7428283691407	-168.9505462646485	409.5214233398439	124.3398666381836	-171.5019226074219	374.0029907226563	52.59201431274415	-227.1503448486329	455.8372802734376	85.62808227539064	-113.6975631713867	399.9280700683595	103.8516845703125	-108.7857666015625	345.1096496582032	58.32961273193361	-154.3292541503907	402.4248962402345	111.3247222900391	-54.93237304687501	698.7376098632814	782.9212646484377	-694.7869873046876	691.7374877929689	755.9944458007814	-640.8004760742189	689.7924194335939	697.9270629882814	-697.1744384765626	669.4461059570314	672.3582763671876	-645.2199707031251	653.3171386718751	327.1918945312501	-974.4771118164065	658.4814453125001	285.5031738281251	-941.4722290039065	649.8181762695314	272.5075683593751	-988.9605712890627	640.1792602539064	231.3109893798829	-951.9139404296877	591.8733520507814	165.0367431640625	-1117.671508789063	620.1635131835939	128.541000366211	-1130.922119140625	561.4705200195314	128.9643096923828	-1126.36279296875	563.3526000976564	57.58304977416994	-917.1360473632815	665.1326904296876	37.81571960449219	-968.5737304687502	
275	1.141666666666667	448.0986938476564	1073.806274414063	-734.3222656250001	557.2044677734376	1080.191040039063	-733.7610473632814	395.1502685546876	1043.936767578125	-519.5399780273439	640.0143432617189	1036.745361328125	-528.8923339843751	320.2351379394532	781.445739746094	-504.4275817871095	331.8638610839844	794.1701660156252	-446.3449096679689	332.3029174804688	715.5960083007814	-452.310028076172	354.5171813964844	726.4218139648439	-399.1526184082032	384.2243652343751	277.1228942871094	-364.6790466308594	375.6401977539063	282.8004760742188	-303.7586059570313	386.3781738281251	229.0219726562501	-330.9070739746094	390.2131347656251	235.7444458007813	-271.0833129882813	454.3683471679689	87.16786956787111	-330.4602050781251	484.1414489746095	51.38975143432619	-312.5141906738282	420.8840637207032	50.63745498657228	-324.4178161621094	488.891326904297	75.26514434814455	-246.3580780029297	388.6586303710939	69.30274963378908	-272.2539062500001	466.6199340820314	107.5566864013672	-200.5285034179688	459.1383361816407	97.91748046875003	-166.3570709228516	410.3375244140626	121.4983215332032	-167.980453491211	374.0480346679688	51.55587387084962	-225.3097381591797	456.8613281250001	80.58374786376955	-111.6766815185547	401.2657165527345	99.22955322265628	-105.2381134033203	346.7720336914063	55.18371582031251	-152.0438995361328	404.102264404297	105.1440124511719	-51.31423568725587	698.2122192382814	782.0079345703127	-686.3303222656251	691.2910156250001	755.2040405273439	-632.2224121093751	689.5302734375001	696.9197998046876	-688.3388671875001	669.2214965820314	671.5665893554689	-636.3378906250001	653.4476318359376	329.4640197753907	-968.5105590820315	658.9635009765626	287.1996154785157	-936.1199951171877	650.0786132812501	274.9333496093751	-983.7685546875002	641.1672973632814	232.9932556152344	-947.1211547851565	591.8059692382814	169.5953216552735	-1113.489135742188	619.8199462890626	133.2728576660157	-1127.834228515625	561.2146606445314	133.962646484375	-1122.8974609375	563.3970947265626	57.5260696411133	-916.2486572265627	665.1121215820314	38.33967971801759	-967.9366455078127	
